<?xml version="1.0" encoding="UTF-8"?>
<!DOCTYPE svg PUBLIC "-//W3C//DTD SVG 1.1//EN" "http://www.w3.org/Graphics/SVG/1.1/DTD/svg11.dtd">
<!-- Creator: CorelDRAW -->
<svg xmlns="http://www.w3.org/2000/svg" xml:space="preserve" width="300mm" height="300mm"
     style="shape-rendering:geometricPrecision; text-rendering:geometricPrecision; image-rendering:optimizeQuality; fill-rule:evenodd; clip-rule:evenodd"
     viewBox="0 0 300 300"
>
 <defs>
  <style type="text/css">
   <![CDATA[
    .fil5 {fill:none}
    .fil0 {fill:#008532}
    .fil2 {fill:#53A56C}
    .fil3 {fill:#66A877}
    .fil4 {fill:#F7DC57}
    .fil1 {fill:#FAD505}
    .fil6 {fill:#008532;fill-rule:nonzero}
   ]]>
  </style>
 </defs>
    <g id="Laag_x0020_1">
  <metadata id="CorelCorpID_0Corel-Layer"/>
        <g id="_395084160">
   <path id="_395077392" class="fil0"
         d="M161.736 215.604c1.3697,-0.2122 2.5147,0.7559 2.5286,2.1016 -0.9016,0.2235 -0.709,0.564 -1.7337,-0.277 -0.9374,-0.7698 -0.7897,-1.8144 -0.7949,-1.8246zm-38.5334 1.5175c1.1629,-1.9941 2.2192,-0.4781 3.7329,-4.9213l2.9803 -5.5181c2.2184,2.0727 -0.1452,4.5107 -1.3318,6.7536 -0.9096,1.7186 -3.1161,4.887 -5.3814,3.6858zm-18.4103 2.3843c-0.0626,-2.2224 7.2122,-5.9874 9.3106,-7.7497 3.6407,-3.0576 1.8905,-3.7304 3.418,-5.4177l5.4521 -3.3008 1.1247 1.076c0.4512,2.9835 -5.462,7.6253 -7.8135,9.3736 -2.2972,1.7078 -3.5301,1.8767 -5.7939,3.0518 -2.4135,1.2526 -2.3231,4.1887 -5.698,2.9668zm62.5609 -8.8593l-7.1849 -1.9808c0.2555,-2.6415 5.6564,-5.3821 9.4914,-8.0689 0.5216,2.3119 -0.8276,1.9032 -1.6047,4.1011 -0.7449,2.1063 -0.0276,3.8004 -0.7018,5.9486zm-1.704 10.1829c0.0937,-0.8864 3.0889,-5.2333 3.7548,-6.829 1.28,-3.0684 1.2324,-6.3629 2.0232,-9.4653 0.4973,-1.9519 2.7456,-5.2964 3.8742,-7.1904l3.0123 -8.4107c3.9412,4.9839 -3.1766,13.2918 -4.6127,16.9719 -0.3476,0.891 -3.5099,14.3859 -8.0518,14.9235zm-35.3161 -20.3059c-0.029,-1.3191 2.9224,-4.5904 3.9671,-5.7206l7.0407 -3.055 0.912 2.627c-3.4725,0.4807 -3.6212,-1.1904 -6.7164,2.1192 -1.2386,1.3244 -3.4105,4.1046 -5.2034,4.0294zm59.6937 -3.9304l-3.13 -6.1808c4.9953,-2.7501 3.2551,-2.3684 7.6527,-2.4721l-0.8764 6.6527 -1.4696 -1.3673c-2.0058,1.1994 -0.3593,1.6012 -2.1767,3.3675zm-7.5088 -6.183c3.8166,-0.6932 3.5077,7.4757 0.1423,6.4299 -0.4976,-1.1251 -0.5517,-5.2458 -0.1423,-6.4299zm18.0434 1.7052l-3.4617 -3.8951 3.628 0.9599c-1.2531,1.627 -0.121,1.1051 -0.1663,2.9352zm-72.5848 -11.255c1.4788,0.7025 1.373,1.569 2.8128,2.45l3.1584 2.029 -3.7605 2.0864c-1.4294,-1.1011 -3.3831,-5.0479 -2.2107,-6.5654zm13.4614 -26.8016l1.1301 -7.9243c1.3824,0.3081 4.4145,2.4757 6.245,3.2264l7.637 2.4904c-1.0944,2.4712 -4.9121,1.6278 -7.0874,1.3738 -3.1105,-0.3633 -3.918,2.1046 -7.9247,0.8337zm-55.7379 -4.7156c4.0528,-1.0687 9.4937,9.8466 12.2654,14.154 2.5536,3.9686 9.5376,10.7672 13.0793,14.3369 2.6027,2.6235 3.9135,4.7516 6.2067,7.4907 5.8647,7.0058 4.8425,7.74 0.367,12.6996 -1.7372,1.9254 -1.6084,2.0882 -2.8595,4.2353l-6.9755 6.1834c0.0954,-2.7374 4.1894,-4.5222 5.5416,-6.7611 0.6973,-1.1539 1.2406,-3.0198 1.9011,-4.2774 2.8325,-5.3933 8.7552,-0.7753 -7.6051,-18.3485 -9.4022,-10.0988 -10.0574,-10.8469 -17.6171,-21.2908 -1.4983,-2.0695 -5.1872,-5.9921 -4.3039,-8.4221zm28.7294 -5.4125c1.8793,0.1504 4.8407,7.6439 7.9882,12.0439l0.5453 -3.1546c1.2292,1.6766 0.6629,4.1957 2.1466,6.9697l3.5108 5.2611c-2.4106,0.0837 -7.4778,-6.4778 -9.1612,-8.4506 -2.5968,-3.0424 -6.1648,-8.6235 -5.0297,-12.6695zm-13.7303 -10.9769c2.4148,-0.3299 3.1283,2.0421 4.0777,3.8457l2.0498 0.5376 1.8235 6.977c-2.0306,-0.1587 -8.7026,-9.1023 -7.951,-11.3603zm36.0284 -4.1141c1.1843,1.4903 0.9153,5.3801 2.4683,8.0109l5.1667 4.9942c-6.2093,-3.3131 -4.8383,-3.3341 -8.258,-2.698 -0.509,-2.4754 1.4409,-2.5553 0.8452,-5.3413 -0.4143,-1.9357 -2.1696,-3.2959 -0.2222,-4.9658zm13.7064 2.1333l9.0556 1.9148 -0.9992 6.319c1.9584,3.2172 12.9562,5.4533 16.6916,5.5051l20.1104 -2.5129 6.6296 -11.4667 1.097 10.4618 2.8255 0.6634 1.771 13.9915 -10.0542 0.9258 7.989 3.4364c3.4651,3.8742 -0.6873,10.4234 -5.6284,4.3376l-9.398 -8.5131c-1.9824,2.8074 1.7827,2.7906 3.0933,4.6456 5.3575,7.5832 -0.8772,5.6195 17.0484,6.8851l-1.5107 7.028 3.2037 -0.0024 -2.8459 8.6662 4.471 -0.2819 -0.6786 2.0044c-4.7853,-0.4446 -3.3956,-0.6133 -7.7959,0.0503l1.0772 -2.8203 -4.5759 2.0924 2.6509 -3.5879c-2.7675,-0.0421 -3.9573,2.4835 -6.3668,0.9536 -2.9561,-1.8771 0.263,-1.9055 -6.4217,-1.9969l-1.3543 -12.5756 -2.7476 2.9404c-3.3012,0.3856 -4.7739,0.0357 -7.7483,2.42 -2.7879,2.2347 -5.1078,2.7155 -8.585,1.125 -10.5697,-4.8352 -2.2526,-2.5681 -16.2966,-5.8006l6.0254 -16.6398c-5.0674,-1.5503 -2.4806,1.8224 -8.2649,-4.9917l-5.8851 -7.3796 2.4618 -0.8691c1.4875,-4.1495 -1.1271,-4.9421 -0.7158,-7.2864l4.0797 -4.8116c0.4158,2.9518 -2.6136,2.8529 -2.4082,5.1701zm0.0577 -15.1309l-1.1744 -0.5907c-0.243,-1.3562 1.3805,-5.3972 2.6864,-5.7366 0.2533,2.0255 -1.5443,2.8194 -1.512,6.3273zm0 0c3.7016,-0.9992 5.056,-8.1608 7.2388,-8.1055 0.149,1.5328 -5.0278,10.0918 -6.6057,11.1125l-0.6331 -3.007zm25.7175 -9.1667c-1.6154,-0.94 -1.2034,-1.0432 -1.1801,-3.1468 0.0189,-1.7338 -0.3907,-2.6207 1.0016,-3.3888 1.0396,1.5104 0.7564,4.7505 0.1785,6.5356zm28.1891 4.8558c-1.1569,-1.7936 -0.2401,-4.9531 -0.0122,-7.1047 0.2917,-2.7533 1.9763,-3.9379 4.6283,-3.3523 0.5314,2.0685 -2.7573,9.4087 -4.6161,10.457zm-92.6238 -10.8329c-0.2443,-1.6774 0.6336,-3.0871 0.5671,-5.1207 -0.1882,-5.7573 -0.0828,-3.3051 3.2171,-9.2237l2.4531 -3.4137c0.6797,2.7827 -1.9735,6.9103 -3.1703,9.3312 -1.1293,2.2847 0.8406,8.2221 -3.067,8.4269zm45.416 -41.2752l1.0797 4.4778 2.3656 0.681 3.073 10.5852c-1.8097,3.2796 -1.4457,1.4301 -0.4626,8.9447l2.342 -1.0084 -0.9826 -4.2778 2.0252 -1.9354c-0.0261,-1.1363 -3.8503,-12.9595 -4.0628,-13.3586l-2.1449 -3.4986c2.788,-0.228 9.9047,6.6867 9.949,6.7615l3.8483 18.9711c-1.8213,3.3282 -2.5632,0.7364 -1.2756,6.3068l-0.9596 6.9603c-5.4874,0.7912 -19.3824,0.2508 -21.8898,1.0573 -1.7504,0.5633 -2.6734,2.1898 -9.4393,2.5152l-8.0772 -1.4996c1.499,-0.0872 1.984,1.5613 6.3831,0.6575l5.2451 -3.0942 -1.6156 -1.744 8.4566 0.7162 -2.1851 -2.4348 14.9297 2.6722 -17.8258 -7.5906c-0.4833,-1.9207 0.3104,-1.3166 0.6936,-2.9021 0.3579,-1.4803 -0.4337,-1.626 0.1769,-3.8028 1.0832,-3.8597 1.0077,-3.3455 -1.3304,-6.5238l-7.675 -11.323 3.966 -1.78c-0.0014,-2.3385 -5.2827,-3.5134 -5.3791,-3.5142 -2.4307,0.839 -2.465,3.0904 -3.0248,5.2812 -0.9282,3.6315 -1.4965,2.9578 0.4616,6.1862 1.9342,3.1894 0.8704,2.0132 3.5572,4.8398l3.0388 5.2663 -4.8421 -0.3784 -4.0949 -6.7321 -3.5416 3.8572 -2.1846 -5.0647c-1.5958,0.757 -0.7997,0.5388 -1.6197,1.7981 -1.9196,2.9479 -1.7768,-1.2319 -2.873,7.685l-2.4434 11.7199c-0.2412,-1.0787 0.6428,-4.6032 0.5787,-6.8473 -0.267,-9.3737 1.224,-7.8997 2.5742,-13.8321l1.3141 -7.0998 4.4444 0.9975 -0.8447 2.8839 2.7226 -0.2023c0.665,-1.5692 0.582,-2.7999 1.4276,-4.3261 0.9812,-1.77 1.3053,-2.1275 2.0644,-4.1334 2.1622,-5.711 12.8086,-8.9768 16.8672,-8.0249l8.9352 3.9106 -1.7456 1.1965zm-20.5117 -7.7055c-1.3824,0.9463 -2.1089,0.794 -3.6971,0.2691 -0.5016,-1.4965 -0.4732,-0.7845 -0.0082,-2.1435 1.8737,-0.402 3.5366,-0.2996 3.7053,1.8744zm-2.8467 -6.3676c-0.5233,-1.6636 0.2815,-1.7757 1.5208,-0.9758 -0.5339,1.2553 -0.0952,1.0342 -1.5208,0.9758zm-2.2978 -5.8056c1.2861,-1.113 2.1585,-1.2631 3.362,-0.0597 -0.4805,1.1526 -1.6881,2.1143 -2.8774,2.3893 -0.8084,-1.1343 -0.5974,-0.854 -0.4846,-2.3296zm6.0864 -4.7149c-1.7314,-1.3385 -1.827,-4.8567 0.9826,-4.8196 0.6287,1.7631 0.7605,3.718 -0.9826,4.8196zm-28.2305 67.746l0.9638 -0.0755c1.8533,-0.5426 5.3088,2.4805 7.1439,3.4563l8.4996 1.1642c0.9696,1.1971 2.2464,6.4847 2.5244,8.2506l-1.9549 6.7577c-3.5313,-1.1669 -9.2661,-5.4868 -12.5422,-5.973l-0.0938 0.9995 7.529 4.3322c1.9419,2.2337 -2.9783,1.0798 5.8545,4.57 -0.7614,1.3475 -1.4356,0.8371 -2.4848,2.7207 -1.7056,3.0639 -1.5603,8.2879 -1.8029,12.1623 -1.599,-2.4307 -0.4086,-11.2692 -0.0706,-14.3611l-4.9299 1.14 -0.3548 7.9911 -1.2755 -5.6613 -1.7043 7.3898c-0.9396,-1.4559 -1.3059,-7.1344 -0.7627,-8.9568l4.0529 -6.2951c-1.9641,-1.5854 -11.9002,-0.988 -14.8194,-0.8393 -4.8357,0.2466 -9.4249,1.3627 -13.8277,3.3113 -3.6412,1.6116 -6.5728,5.0894 -8.0618,8.7144 -3.4925,8.5044 -0.5076,7.8248 0.5614,12.6658 0.7581,3.4339 -4.9939,7.4961 2.5917,15.0894 11.2019,11.2134 19.622,19.5213 30.5885,31.1925 -0.6379,1.3093 -1.4239,1.6195 -1.9207,2.9481 -1.9253,5.149 2.4207,0.5264 -6.3056,9.595 -2.2972,2.3872 -1.223,3.4044 -4.0652,6.5518 -1.4764,1.635 -3.707,4.4509 -3.2635,6.7991 0.6608,3.4985 3.694,3.496 6.4911,4.0201 5.6352,1.0553 5.5154,-0.9125 8.8071,-1.3497 2.7182,-0.3607 2.7844,2.9578 7.0736,-0.067 2.3079,-1.6276 3.8814,-3.0077 6.0172,-4.6063 2.6865,-2.0107 2.5123,-3.2395 4.4588,-5.7072 2.8497,-3.6121 16.8456,-5.786 12.1293,-17.4273 -1.9032,-4.6968 -2.042,-2.9928 -5.5948,-5.0222 -2.0602,-1.1766 -2.9561,-4.4272 -4.2252,-6.3783 -5.1556,-7.9239 -3.3631,-4.4215 -6.8464,-13.9093 1.1896,-0.1395 7.5283,4.3937 9.1857,5.3609 9.0744,5.2969 15.8372,5.1376 24.0734,6.0158l12.3409 1.8111c-0.1905,0.4811 -2.1695,2.5551 -3.9456,5.6736l-7.4949 11.9456c-4.4954,7.475 -10.5846,3.3003 -14.2641,14.9267 -1.7541,5.5426 0.4643,10.4167 6.0173,12.3106 5.4852,1.8711 10.3833,-0.381 14.6221,-3.6143 3.1963,-2.438 7.3174,1.8828 12.5828,-6.8908 2.3014,-3.835 1.2522,-5.4367 11.4433,-8.0283l15.9398 -3.9571c0.1094,-1.8481 -0.2436,-1.5192 -0.4039,-3.0276l0.2006 -3.2457c-2.0209,-2.7497 -6.8551,-1.555 -9.6421,-0.4436 -1.4328,0.5714 -2.5272,1.5005 -4.0988,2.0961 -4.5947,1.7419 -10.0807,1.7523 -11.6822,6.8868 -1.3439,4.3104 1.3614,0.9166 -3.7788,8.5958 -0.2716,-1.8298 2.3097,-6.0661 2.915,-8.9657 0.7237,-3.4668 2.8057,-5.7834 6.2383,-6.6699 3.1116,-0.8037 6.3557,-2.4174 9.3287,-3.4428 2.3327,-0.8048 7.5166,-0.3889 11.4434,-0.5113l0.7085 6.8248c2.1148,-0.1213 1.8318,-1.9516 2.0729,-3.6011l1.7068 -4.6437c-2.8378,-3.9127 -1.6906,-2.5989 -6.402,-5.7739l4.888 0.0134c2.1223,-2.0827 0.0364,-0.8629 2.9517,-1.9324l2.0007 -2.8177c-0.9716,-2.6529 -3.0067,-2.3557 -2.0993,-6.0561 0.4603,-1.877 2.2802,-4.5804 1.8235,-6.514 -0.2092,-0.8841 -2.5951,-4.5145 -3.2328,-5.5542l-0.9722 -7.8678 -1.5086 -1.162 -1.7875 -16.8562 -3.413 -0.5134c-0.842,-2.2846 -0.5491,-3.9233 -0.8719,-6.2 -0.5508,-3.8906 0.844,-2.1948 1.0168,-5.4158 0.2512,-4.6975 -0.973,-9.2925 1.0653,-13.5546 1.166,-2.4382 5.6896,-14.4321 5.5309,-16.0053 -0.1373,-1.3579 -1.0352,-4.3669 -1.3142,-6.0766l-1.1671 -0.1846c-1.6465,1.511 -1.6092,2.9145 -3.8086,2.3657 -0.8531,-2.4768 -0.2272,-10.2288 -0.4114,-13.5178l2.0563 -0.1464c-0.3726,-5.4016 -4.9357,-16.4271 -9.2779,-19.8177 -6.5392,-5.1055 -13.9894,-3.5782 -21.6519,-3.0548 1.215,1.5837 11.3419,2.9698 13.9604,3.6488 5.6024,1.4529 8.0059,2.6852 9.7343,8.4069 2.1761,7.2045 -1.6435,10.5358 -0.5436,14.7036 2.0179,7.6444 1.9841,-0.3679 3.4594,13.8468l5.8713 -0.8676 -0.0811 1.7842c-1.9265,1.2991 -4.1037,0.3044 -5.6323,3.6963 -0.6679,1.4827 -0.2144,2.0814 -1.0308,3.8549 -0.851,1.848 -0.5275,18.7889 -0.5745,21.9249l-8.1389 1.1567 -1.6024 11.2181c-2.3816,0.9186 -12.2215,1.6425 -15.1587,1.6759l-13.4181 -3.8697 2.5148 -11.8284c-1.3464,-0.844 -0.7673,-0.1355 -2.2096,-0.4439 -0.8788,-0.1877 -1.7856,-0.859 -2.6988,-1.2552l-6.5767 -1.4023c-0.2028,-1.8049 2.0361,-4.7176 2.859,-6.5223l2.7386 -6.8663 1.7195 8.2403 2.9085 -10.5447 2.3189 1.5007 1.3402 -2.7621 1.9758 0.6597c2.0585,5.9616 1.9218,5.5134 9.3971,1.6661l-1.4158 -1.119c1.3138,-3.5135 0.609,-2.0859 1.1982,-7.784l1.7243 6.5277 4.0236 -0.0424c1.8534,-4.296 -0.791,-5.6674 -2.5167,-7.2226l0.9689 -7.3296 -2.8912 4.2396c-1.4364,-1.1674 -0.0075,-7.5455 -0.0234,-9.6802l-1.2483 0.294 -2.6843 10.6994 -2.2051 -7.4394 2.5282 -0.9036 -4.2498 -22.9394c-2.4043,-0.9055 -3.5808,-0.1917 -5.6908,-2.2849 -1.5884,-1.5763 -1.5476,-2.6998 -3.69,-4.2535l-7.714 -7.9013 15.8214 -2.8607 -3.0412 6.8997 -4.7646 1.6206c0.4826,1.5839 2.4594,3.2085 3.5307,4.5991l5.4095 1.9502 3.4488 -11.7537 -1.9096 -2 1.4031 -7.6166c-4.5109,-3.4632 -21.8861,-3.0021 -27.7191,-3.0198 0.4634,-2.266 9.1053,-4.613 11.4114,-4.9589l12.7256 2.6585 -8.4112 -5.6315 2.7688 -0.6016 -0.6002 -2.8313 -6.2142 0.2919 -0.7486 3.0371 -5.756 1.2586 5.7308 -5.2296c0.4742,-2.1953 0.0895,-5.1404 -1.5027,-6.8789 -2.3716,-2.5894 -9.6533,1.7786 -12.0115,3.5055l-4.9578 4.3257 -1.5282 -0.8248c-3.7279,1.5805 -4.0904,8.0911 -4.8327,9.0828 -3.3842,2.204 -5.3515,0.1411 -4.2628,6.223 0.3567,1.9904 0.6554,3.3758 0.3939,5.3499 -0.3025,2.2852 0.5934,2.2864 0.5415,4.8442 -0.1128,5.5037 2.6645,3.6138 -3.0512,7.6649 -1.9962,1.415 -5.361,3.7582 -6.6923,5.7059 -2.2261,3.2571 -6.4675,13.9214 -6.9894,17.7628 -0.8451,6.2214 -5.134,12.5275 -4.7423,18.9886z"/>
            <path id="_395077080" class="fil1"
                  d="M75.109 39.47l-0.3019 -0.7784 -1.2711 0.2894c-5.5549,2.6766 -18.7127,16.8937 -22.5941,22.0528 -14.6692,19.4988 -23.6985,39.8764 -26.0809,64.6118 -1.7595,18.2683 0.1233,24.4759 2.9721,41.7473l10.2936 -4.6298c-0.3887,-2.3017 -1.1655,-5.772 -1.7207,-8.1093 -1.8894,-7.9538 -2.4327,-21.5567 -1.9457,-29.9094 0.3697,-6.3426 1.4502,-12.0407 2.5194,-18.2399 1.5635,-9.0621 6.4949,-22.6407 10.8766,-31.1956 6.3837,-12.4625 16.4803,-26.5654 27.2527,-35.8389z"/>
            <path id="_395077800" class="fil0"
                  d="M170.885 97.0061c0.137,-1.248 -4.2607,-5.4236 -5.4906,-7.5372 -1.1062,-1.9014 -3.9759,-7.102 -6.1325,-7.2495 0.2842,2.203 8.4734,15.1734 11.6231,14.7867z"/>
            <path id="_395077608" class="fil0"
                  d="M190.525 107.165c1.4048,0.5311 1.8998,0.8696 3.3006,0.477 0.7014,-3.143 -0.3926,-7.1152 -4.4964,-6.5106l1.1958 6.0336z"/>
            <path id="_395085144" class="fil2"
                  d="M113.931 117.155l0.0938 -0.9995 -3.6194 -3.0947c-0.6269,-2.3151 -0.3935,-8.0689 -0.0514,-10.5611l-0.9638 0.0755c-0.6248,1.72 -0.9642,7.3728 -0.7385,9.2655 0.2586,2.1701 3.3124,4.7528 5.2793,5.3143z"/>
            <path id="_395084784" class="fil3"
                  d="M209.788 90.7028l1.1671 0.1846c-0.8503,-2.7685 -1.8022,-9.6279 -3.3308,-11.4831l-2.0563 0.1464 1.1346 0.5225 3.0854 10.6296z"/>
            <path id="_395084976" class="fil4"
                  d="M73.536 38.981l1.2711 -0.2894 0.3019 0.7784 9.1553 -7.5634c-1.6574,-0.6581 -9.5464,5.4743 -10.7283,7.0744z"/>
            <path id="_395084952" class="fil0"
                  d="M166.921 26.0696c3.5739,1.5508 1.5356,-0.5668 5.3198,3.2524l-6.5109 -8.2104c-0.287,1.3079 0.5287,3.6001 1.1911,4.958z"/>
            <path id="_395084304" class="fil0"
                  d="M197.395 107.717l-2.2217 0.3652 5.7479 1.7913 -3.0059 -5.6846c-0.366,1.6435 0.2293,1.6637 -0.5203,3.5281z"/>
            <path id="_395084232" class="fil3"
                  d="M179.646 86.0367l1.2483 -0.294c0.5402,-1.1589 1.3956,-2.8609 0.9001,-4.034 -1.5702,0.6355 -1.8397,2.7299 -2.1484,4.328z"/>
            <path id="_395084400" class="fil2"
                  d="M203.57 165.597l1.4039 -1.5386 -0.8309 -0.4962c-1.2142,0.5545 -1.9175,1.0938 -0.573,2.0348z"/>
  </g>
        <ellipse class="fil5" cx="152.092" cy="139.774" rx="127.89" ry="128.576"/>
        <path class="fil6"
              d="M33.373 188.239m8.0383 2.4151l-0.4396 -0.9427 -4.2651 1.9888c-0.5594,0.2609 -1.0313,0.3304 -1.4123,0.2071 -0.3811,-0.1234 -0.6653,-0.3859 -0.8512,-0.7846 -0.1989,-0.4266 -0.2156,-0.8252 -0.0469,-1.1897 0.1686,-0.3646 0.5187,-0.6709 1.0566,-0.9217l10.2146 -4.7631c0.5779,-0.2695 1.0588,-0.3358 1.4395,-0.1972 0.3807,0.1386 0.7064,0.4984 0.9759,1.0763l2.0394 4.3734c0.281,0.6026 0.497,1.1302 0.6448,1.5844 0.1508,0.4527 0.2259,0.8879 0.2283,1.3046 0.0184,0.4993 -0.0605,0.9839 -0.2351,1.4566 -0.1792,0.4712 -0.4423,0.8911 -0.7987,1.2567 -0.3518,0.3673 -0.7703,0.664 -1.2555,0.8902 -0.989,0.4612 -1.91,0.552 -2.7611,0.2679 -0.8544,-0.2827 -1.6664,-0.9351 -2.4426,-1.954 -0.0315,0.5942 -0.1952,1.2274 -0.4866,1.8938 -0.2927,0.6632 -0.6365,1.2977 -1.0375,1.8985 -0.4008,0.6009 -0.7807,1.1016 -1.1394,1.5022 -0.3633,0.3989 -0.6277,0.6388 -0.7946,0.7167 -0.1762,0.0821 -0.3752,0.1072 -0.6001,0.0767 -0.222,-0.032 -0.4285,-0.1201 -0.6214,-0.2672 -0.1897,-0.1486 -0.3428,-0.3481 -0.461,-0.6016 -0.1398,-0.2997 -0.1884,-0.5894 -0.1413,-0.8597 0.047,-0.2702 0.1441,-0.53 0.2913,-0.7792 0.1471,-0.2493 0.3749,-0.6001 0.6802,-1.051l1.2896 -1.9145c0.4782,-0.6933 0.8174,-1.273 1.0193,-1.7359 0.2003,-0.4659 0.2911,-0.8845 0.2709,-1.2588 -0.0189,-0.3712 -0.1385,-0.7971 -0.3604,-1.273zm6.2964 -1.0622l-1.1573 -2.4819 -3.6501 1.7021 1.1227 2.4076c0.3012,0.6459 0.6104,1.164 0.9278,1.5541 0.316,0.3869 0.6646,0.6344 1.0416,0.7409 0.3771,0.1064 0.7996,0.0524 1.2725,-0.1681 0.3678,-0.1715 0.649,-0.4156 0.8424,-0.7353 0.1947,-0.3166 0.2839,-0.6742 0.2673,-1.0728 -0.0127,-0.3742 -0.236,-1.0226 -0.6669,-1.9466zm-8.2135 12.1514m16.8721 -1.3689c0.8284,1.2757 1.2805,2.5353 1.3571,3.7867 0.0749,1.2485 -0.2078,2.4161 -0.8556,3.5036 -0.6477,1.0876 -1.6138,2.0483 -2.9008,2.8841 -0.9495,0.6167 -1.8939,1.0469 -2.839,1.2948 -0.9423,0.2459 -1.8661,0.301 -2.7696,0.1558 -0.9034,-0.1452 -1.7486,-0.4949 -2.5365,-1.0445 -0.7869,-0.5543 -1.4957,-1.314 -2.1235,-2.2806 -0.624,-0.961 -1.0287,-1.9221 -1.211,-2.8853 -0.1833,-0.9585 -0.158,-1.8777 0.0748,-2.7526 0.2328,-0.875 0.6646,-1.7002 1.2878,-2.475 0.6233,-0.7748 1.3976,-1.4607 2.3186,-2.0587 0.9437,-0.6129 1.8977,-1.0413 2.8606,-1.2803 0.9658,-0.2409 1.8895,-0.2838 2.7759,-0.1274 0.8891,0.1545 1.7173,0.503 2.4882,1.0516 0.7738,0.5465 1.4639,1.2898 2.073,2.2278zm-4.0202 7.6407c0.9009,-0.585 1.5841,-1.2361 2.0571,-1.9539 0.4684,-0.719 0.6995,-1.4587 0.686,-2.2184 -0.0117,-0.7569 -0.2441,-1.4842 -0.6992,-2.1849 -0.3232,-0.4977 -0.7147,-0.894 -1.1755,-1.1965 -0.4617,-0.2979 -0.9693,-0.4847 -1.5256,-0.5585 -0.5543,-0.0711 -1.168,-0.0141 -1.8379,0.1689 -0.6682,0.1858 -1.3522,0.504 -2.0442,0.9534 -0.6979,0.4532 -1.2724,0.9523 -1.7225,1.4928 -0.4483,0.5431 -0.7557,1.0965 -0.9196,1.6583 -0.1637,0.5618 -0.2015,1.1109 -0.1134,1.6473 0.0834,0.5354 0.2891,1.0525 0.6122,1.5501 0.4142,0.6378 0.9533,1.1172 1.6181,1.4459 0.6647,0.3287 1.4316,0.4325 2.3022,0.3143 0.8697,-0.1134 1.7898,-0.4873 2.7623,-1.1188zm-4.3843 6.6187m4.2736 2.801l3.6096 -2.9229 2.058 -6.2697c0.1921,-0.5592 0.3548,-0.9761 0.4906,-1.2528 0.1357,-0.2767 0.2831,-0.4794 0.4448,-0.6104 0.2624,-0.2124 0.5739,-0.2936 0.9327,-0.2462 0.356,0.0495 0.6553,0.224 0.9,0.5262 0.2554,0.3153 0.3584,0.6268 0.3139,0.9349 -0.0466,0.3055 -0.207,0.839 -0.4758,1.5963l-1.7298 4.9245 5.1958 -0.6443c0.3151,-0.0445 0.5833,-0.0818 0.7993,-0.1076 0.2166,-0.0306 0.429,-0.0447 0.6421,-0.0416 0.2152,0.0056 0.4076,0.0428 0.5791,0.119 0.1713,0.0763 0.3325,0.2047 0.4848,0.3928 0.234,0.289 0.3339,0.6074 0.3023,0.9532 -0.0293,0.3485 -0.172,0.622 -0.4185,0.8216 -0.2041,0.1652 -0.4441,0.2807 -0.7249,0.3458 -0.2808,0.0649 -0.6991,0.1229 -1.2474,0.1719l-6.6799 0.6921 -3.6095 2.9229c-0.4691,0.3799 -0.9096,0.5567 -1.3188,0.5282 -0.4092,-0.0284 -0.7512,-0.2123 -1.0215,-0.5462 -0.2769,-0.3419 -0.3883,-0.7124 -0.3294,-1.1111 0.0589,-0.3988 0.3281,-0.7924 0.8025,-1.1766zm2.7241 6.2019m8.8155 6.7379l0.8365 -1.7797 -4.1361 -4.2831 -1.8373 0.8024c-0.7193,0.3106 -1.236,0.4873 -1.5551,0.5251 -0.3167,0.0403 -0.6301,-0.0978 -0.9357,-0.4143 -0.2582,-0.2673 -0.3898,-0.6 -0.3926,-0.9956 -0.0027,-0.3956 0.1209,-0.7142 0.3712,-0.9559 0.1422,-0.1373 0.3156,-0.2573 0.5127,-0.3576 0.2019,-0.1001 0.4911,-0.2277 0.87,-0.3803l9.4451 -3.911c0.2697,-0.1134 0.5952,-0.2476 0.9742,-0.405 0.3814,-0.1597 0.7185,-0.2672 1.0185,-0.3198 0.3,-0.0527 0.6035,-0.0329 0.9082,0.0568 0.3047,0.0897 0.598,0.2805 0.88,0.5725 0.2866,0.2968 0.4694,0.5991 0.5485,0.9067 0.079,0.3077 0.0906,0.6093 0.0324,0.9025 -0.0606,0.2908 -0.1524,0.5787 -0.2731,0.8611 -0.1229,0.28 -0.2935,0.6485 -0.5064,1.1054l-4.142 9.319c-0.3092,0.7157 -0.5802,1.186 -0.8158,1.4135 -0.2428,0.2345 -0.5655,0.347 -0.9658,0.34 -0.4002,-0.0069 -0.74,-0.1528 -1.0172,-0.4398 -0.1611,-0.1668 -0.2715,-0.3399 -0.3262,-0.5193 -0.0572,-0.1771 -0.0734,-0.3558 -0.0486,-0.5363 0.0249,-0.1805 0.099,-0.4227 0.2225,-0.722 0.1234,-0.2993 0.2316,-0.5604 0.3321,-0.7853zm-1.1576 -7.0504l3.0417 3.1498 2.8117 -5.7873 -5.8534 2.6375zm2.7602 10.9523m11.9933 -6.9301l-6.9937 8.0454 4.5399 3.9465c0.3603,0.3132 0.5622,0.6424 0.6009,0.9878 0.0434,0.345 -0.0537,0.6491 -0.2842,0.9142 -0.2371,0.2729 -0.5225,0.4088 -0.8607,0.4131 -0.3358,0.0018 -0.6901,-0.1572 -1.0557,-0.4749l-5.4073 -4.7005c-0.4864,-0.4229 -0.7451,-0.8374 -0.7707,-1.2393 -0.0257,-0.4019 0.173,-0.8437 0.5914,-1.3249l7.4009 -8.5138c0.3916,-0.4505 0.7898,-0.7007 1.19,-0.7504 0.4002,-0.0498 0.7664,0.0697 1.0984,0.3583 0.3345,0.2908 0.5111,0.6387 0.525,1.0437 0.0138,0.4052 -0.1782,0.8393 -0.5742,1.2948zm1.3883 17.9791m15.8569 2.8874l-1.4873 2.3801c-0.197,0.3153 -0.3878,0.5499 -0.566,0.7 -0.181,0.1481 -0.4022,0.2512 -0.664,0.2968 -0.2635,0.0484 -0.5667,0.064 -0.9156,0.043 -1.0049,-0.0648 -1.9141,-0.2188 -2.7238,-0.4674 -0.8115,-0.2457 -1.627,-0.6267 -2.4455,-1.1381 -0.9573,-0.5982 -1.7327,-1.2878 -2.3368,-2.0714 -0.5994,-0.7847 -1.0047,-1.6291 -1.2065,-2.5353 -0.2065,-0.9051 -0.2087,-1.8475 -0.0049,-2.83 0.199,-0.9815 0.6081,-1.9643 1.2226,-2.9476 0.6018,-0.9631 1.2993,-1.7577 2.0862,-2.3798 0.7915,-0.6233 1.6413,-1.0373 2.5483,-1.2467 0.9087,-0.2123 1.8588,-0.2138 2.8441,-0.0082 0.9873,0.2027 1.9904,0.6245 3.0055,1.2588 0.8386,0.524 1.5056,1.0976 2.0114,1.7233 0.5058,0.6257 0.851,1.2315 1.0415,1.8211 0.1906,0.5895 0.2673,1.136 0.2359,1.6432 -0.0343,0.5054 -0.1427,0.9041 -0.327,1.1991 -0.197,0.3152 -0.4807,0.5119 -0.8541,0.5881 -0.3781,0.0774 -0.7273,0.012 -1.0541,-0.1922 -0.1822,-0.1138 -0.3287,-0.2656 -0.4411,-0.4525 -0.1153,-0.1886 -0.18,-0.3939 -0.197,-0.6177 -0.0087,-0.681 -0.0414,-1.2081 -0.1028,-1.5923 -0.0587,-0.3825 -0.2159,-0.7743 -0.4755,-1.1698 -0.2578,-0.3983 -0.671,-0.773 -1.235,-1.1254 -0.5812,-0.3632 -1.165,-0.5874 -1.7467,-0.6734 -0.5816,-0.0859 -1.1574,-0.0396 -1.7198,0.1398 -0.5606,0.1764 -1.1021,0.4895 -1.6208,0.9335 -0.5176,0.4486 -0.9874,1.0075 -1.4067,1.6785 -0.9108,1.4575 -1.2748,2.7863 -1.0982,3.9904 0.1812,1.203 0.8666,2.1782 2.064,2.9264 0.5841,0.365 1.1777,0.6313 1.7824,0.7961 0.6077,0.1665 1.261,0.2732 1.9644,0.3187l1.2595 -2.0158 -1.9492 -1.218c-0.4685,-0.2927 -0.7808,-0.5845 -0.9323,-0.8761 -0.1514,-0.2917 -0.1201,-0.6058 0.0913,-0.9442 0.1735,-0.2777 0.4176,-0.4429 0.7291,-0.4974 0.3135,-0.0576 0.6442,0.0245 0.9884,0.2395l2.8543 1.7836c0.35,0.2187 0.628,0.4366 0.833,0.6492 0.2031,0.2154 0.313,0.4771 0.3268,0.7832 0.0167,0.3081 -0.1088,0.676 -0.378,1.1069zm-2.1071 5.7062m7.651 -3.4509l-0.9502 -0.4231 -1.9141 4.2992c-0.2511,0.5639 -0.5616,0.9259 -0.93,1.0828 -0.3686,0.157 -0.7553,0.1453 -1.1572,-0.0336 -0.43,-0.1915 -0.7041,-0.4814 -0.8159,-0.8672 -0.112,-0.3858 -0.0487,-0.8467 0.1927,-1.3888l4.5842 -10.2962c0.2593,-0.5825 0.5788,-0.948 0.9571,-1.0932 0.3782,-0.1451 0.86,-0.0873 1.4426,0.1721l4.4083 1.9627c0.6074,0.2704 1.1166,0.5269 1.5262,0.7727 0.4108,0.2427 0.753,0.5219 1.0281,0.8348 0.3415,0.3648 0.5999,0.7823 0.7782,1.2536 0.1739,0.4731 0.2508,0.9627 0.2217,1.4724 -0.0245,0.508 -0.1458,1.0065 -0.3635,1.4956 -0.4439,0.9968 -1.0794,1.6696 -1.9081,2.0136 -0.8303,0.3471 -1.8711,0.3875 -3.1254,0.1277 0.3661,0.4691 0.6579,1.0545 0.8752,1.7485 0.2142,0.6927 0.371,1.397 0.4626,2.1135 0.0917,0.7165 0.1334,1.3436 0.1256,1.8812 -0.0125,0.5395 -0.0547,0.894 -0.1296,1.0623 -0.0791,0.1776 -0.2128,0.327 -0.4026,0.4516 -0.1885,0.1214 -0.4021,0.1905 -0.6442,0.206 -0.2407,0.0122 -0.4871,-0.0378 -0.7426,-0.1516 -0.3021,-0.1345 -0.5289,-0.3213 -0.6707,-0.5562 -0.1418,-0.2347 -0.2389,-0.4945 -0.2914,-0.7791 -0.0524,-0.2847 -0.1107,-0.6989 -0.1761,-1.2394l-0.2827 -2.291c-0.094,-0.837 -0.2183,-1.497 -0.3696,-1.9788 -0.1545,-0.4831 -0.3606,-0.8586 -0.6214,-1.1278 -0.2578,-0.2677 -0.6275,-0.5107 -1.1072,-0.7243zm4.0551 -4.9325l-2.5017 -1.1138 -1.6381 3.6792 2.4269 1.0805c0.651,0.2899 1.2243,0.478 1.7198,0.5642 0.4923,0.0848 0.9178,0.0428 1.2722,-0.1242 0.3543,-0.167 0.6378,-0.485 0.85,-0.9617 0.1651,-0.3707 0.2171,-0.7394 0.1534,-1.1076 -0.0607,-0.3667 -0.228,-0.695 -0.5021,-0.9849 -0.2551,-0.2742 -0.849,-0.617 -1.7804,-1.0317zm1.7812 14.3172m14.5186 -8.2771l-6.3569 -2.0655 -1.1117 3.4216 5.8541 1.9021c0.4314,0.1402 0.7208,0.3418 0.8694,0.6017 0.1476,0.2631 0.1724,0.5509 0.0692,0.8686 -0.1033,0.3179 -0.2903,0.5405 -0.5632,0.6741 -0.2751,0.1293 -0.6321,0.1245 -1.0667,-0.0168l-5.8542 -1.9021 -1.2877 3.9634 6.5742 2.136c0.4443,0.1444 0.7446,0.3567 0.902,0.6337 0.1596,0.2814 0.1814,0.5896 0.0707,0.9302 -0.1075,0.3308 -0.3042,0.5609 -0.5987,0.6947 -0.2901,0.1317 -0.6579,0.1269 -1.1022,-0.0175l-7.6671 -2.4912c-0.613,-0.1992 -1.0131,-0.4797 -1.1938,-0.8397 -0.1806,-0.3598 -0.1703,-0.8441 0.0268,-1.4506l3.4027 -10.4726c0.1318,-0.4054 0.3009,-0.7161 0.504,-0.9334 0.2033,-0.2172 0.4526,-0.3442 0.7467,-0.3777 0.2942,-0.0336 0.6408,0.0146 1.0396,0.1442l7.4499 2.4206c0.4508,0.1464 0.7522,0.3555 0.9051,0.6239 0.152,0.2717 0.1781,0.567 0.0727,0.8914 -0.1075,0.3308 -0.3032,0.5576 -0.5859,0.6881 -0.2815,0.1273 -0.6482,0.1192 -1.099,-0.0272zm-1.4849 12.5739m5.0922 -0.4239l1.0448 -4.5255 -2.2383 -6.2076c-0.1929,-0.5591 -0.3214,-0.9876 -0.3847,-1.2893 -0.0634,-0.3016 -0.0721,-0.5521 -0.0253,-0.7549 0.076,-0.3289 0.2715,-0.5847 0.5834,-0.7682 0.311,-0.1802 0.6543,-0.2269 1.0332,-0.1395 0.3954,0.0913 0.6683,0.2734 0.8229,0.5435 0.1514,0.2694 0.3535,0.7886 0.6079,1.5509l1.6687 4.9455 3.6976 -3.7066c0.2209,-0.2291 0.4093,-0.4236 0.5637,-0.5769 0.1519,-0.1575 0.3106,-0.2993 0.4804,-0.4281 0.173,-0.1281 0.3475,-0.2172 0.5295,-0.2627 0.182,-0.0454 0.3881,-0.0434 0.624,0.011 0.3622,0.0837 0.637,0.2731 0.825,0.565 0.1915,0.2927 0.2474,0.5961 0.176,0.9051 -0.0591,0.2559 -0.1771,0.4946 -0.3584,0.7188 -0.1812,0.2241 -0.4751,0.5272 -0.8771,0.9034l-4.8377 4.658 -1.0448 4.5255c-0.1358,0.5882 -0.374,0.9987 -0.7141,1.2282 -0.3399,0.2295 -0.7226,0.2951 -1.1411,0.1985 -0.4288,-0.099 -0.7446,-0.3224 -0.9437,-0.6729 -0.1991,-0.3505 -0.2293,-0.8263 -0.0919,-1.4212zm6.9833 2.8792m13.1681 -2.8153c-0.1081,0.88 -0.4321,1.6442 -0.9717,2.2891 -0.5362,0.6454 -1.267,1.1123 -2.1888,1.4011 -0.9219,0.2887 -1.9789,0.3617 -3.1771,0.2146 -1.4351,-0.1763 -2.5831,-0.5921 -3.4508,-1.2483 -0.6118,-0.4737 -1.0864,-1.0576 -1.4192,-1.7616 -0.333,-0.7006 -0.4619,-1.3589 -0.3863,-1.9749 0.0437,-0.3554 0.2068,-0.648 0.4851,-0.8716 0.2782,-0.2234 0.6088,-0.3134 0.9946,-0.266 0.3115,0.0382 0.5596,0.1717 0.7521,0.3947 0.1887,0.2258 0.3354,0.5428 0.4398,0.9507 0.1293,0.4865 0.2816,0.897 0.4601,1.2349 0.1754,0.3342 0.4484,0.6289 0.8127,0.8797 0.3648,0.2475 0.8634,0.4118 1.4997,0.4899 0.8732,0.1073 1.6057,-0.0089 2.2004,-0.3482 0.5948,-0.3392 0.9314,-0.8132 1.0062,-1.4226 0.059,-0.4806 -0.0384,-0.8911 -0.2959,-1.2285 -0.2574,-0.3374 -0.6117,-0.6145 -1.0562,-0.8272 -0.4476,-0.2164 -1.0496,-0.4621 -1.8095,-0.7375 -1.0126,-0.3717 -1.8539,-0.767 -2.518,-1.1784 -0.6637,-0.4148 -1.1674,-0.9301 -1.511,-1.5461 -0.3434,-0.616 -0.4639,-1.3419 -0.3608,-2.1814 0.0981,-0.7988 0.4019,-1.483 0.915,-2.0522 0.5128,-0.5658 1.2043,-0.9654 2.0714,-1.199 0.8669,-0.2337 1.8588,-0.2803 2.9757,-0.1431 0.8936,0.1097 1.6516,0.3162 2.2745,0.6159 0.6258,0.3037 1.1283,0.6609 1.5128,1.0826 0.385,0.4183 0.6524,0.8428 0.8026,1.2701 0.1469,0.4269 0.2002,0.832 0.1529,1.2179 -0.0429,0.3486 -0.2068,0.648 -0.4883,0.8986 -0.2816,0.2506 -0.6105,0.3545 -0.9794,0.3092 -0.3384,-0.0416 -0.582,-0.1573 -0.7372,-0.3481 -0.1557,-0.1875 -0.3111,-0.4884 -0.4672,-0.8958 -0.2,-0.5812 -0.4621,-1.0497 -0.7966,-1.4034 -0.3311,-0.3533 -0.9081,-0.5788 -1.7273,-0.6794 -0.7615,-0.0935 -1.3945,-0.0028 -1.8994,0.2753 -0.5082,0.2777 -0.7908,0.6485 -0.8485,1.1189 -0.0358,0.2912 0.0113,0.5512 0.1446,0.7806 0.1329,0.2327 0.3304,0.4426 0.5893,0.629 0.2593,0.183 0.5253,0.3393 0.7992,0.4588 0.274,0.1196 0.7257,0.3022 1.362,0.5487 0.7953,0.2934 1.5108,0.5943 2.1455,0.9093 0.6386,0.3121 1.166,0.662 1.5923,1.051 0.4268,0.3857 0.7374,0.8499 0.9362,1.3862 0.1983,0.5397 0.2542,1.1754 0.1645,1.9065zm5.3902 4.6568m7.8525 -0.1371l-4.4769 0.0782c-0.6444,0.0112 -1.1072,-0.1239 -1.3885,-0.409 -0.2813,-0.285 -0.4292,-0.7462 -0.4402,-1.377l-0.1921 -11.0098c-0.0113,-0.6444 0.1204,-1.1106 0.3985,-1.3986 0.278,-0.2879 0.7359,-0.4391 1.3667,-0.4501l4.7462 -0.0828c0.6989,-0.0122 1.3032,0.0215 1.8196,0.0977 0.5129,0.0764 0.9762,0.2354 1.3862,0.4738 0.3514,0.202 0.6594,0.4592 0.9343,0.7716 0.2714,0.309 0.4787,0.6568 0.6253,1.0362 0.1465,0.3829 0.2251,0.7839 0.2325,1.2101 0.0256,1.4662 -0.6887,2.553 -2.143,3.2572 1.9371,0.5767 2.9194,1.7532 2.9504,3.5262 0.0142,0.8184 -0.1843,1.5586 -0.5922,2.2205 -0.4079,0.6654 -0.9655,1.1594 -1.6726,1.4856 -0.4434,0.1919 -0.9526,0.3338 -1.5309,0.419 -0.5783,0.0885 -1.2527,0.1378 -2.0233,0.1512zm-0.3352 -6.4983l-3.0857 0.0539 0.0746 4.2757 3.1847 -0.0556c2.0049,-0.035 2.9947,-0.7754 2.9694,-2.221 -0.0129,-0.7399 -0.2814,-1.2707 -0.8055,-1.5958 -0.5274,-0.3217 -1.3043,-0.4752 -2.3375,-0.4572zm-3.1889 -5.8619l0.0661 3.7881 2.7175 -0.0475c0.7364,-0.0128 1.308,-0.0944 1.7079,-0.2412 0.3999,-0.1468 0.7021,-0.4181 0.9101,-0.814 0.1622,-0.2825 0.2385,-0.5977 0.2325,-0.9454 -0.0129,-0.7399 -0.2841,-1.2263 -0.8133,-1.4592 -0.5328,-0.2329 -1.3362,-0.3417 -2.4136,-0.3229l-2.4072 0.0421zm9.6056 11.8835m10.6864 -2.9854l-0.9179 -1.7391 -5.9098 0.7256 -0.4649 1.9502c-0.1848,0.7614 -0.3547,1.2804 -0.5165,1.558 -0.1584,0.2772 -0.4573,0.4443 -0.8939,0.4979 -0.369,0.0453 -0.7139,-0.0497 -1.0315,-0.2856 -0.3175,-0.2358 -0.4976,-0.5264 -0.54,-0.8717 -0.0241,-0.1962 -0.0156,-0.4069 0.023,-0.6246 0.0415,-0.2215 0.1137,-0.5293 0.2198,-0.9238l2.5608 -9.8969c0.0716,-0.2836 0.1604,-0.6244 0.2628,-1.0217 0.1019,-0.4007 0.219,-0.7347 0.3575,-1.0059 0.1385,-0.2713 0.337,-0.5018 0.592,-0.6912 0.255,-0.1893 0.5839,-0.3087 0.9868,-0.3582 0.4095,-0.0503 0.7609,-0.0143 1.0542,0.1076 0.2933,0.1221 0.5412,0.2944 0.7403,0.5173 0.1958,0.2234 0.3704,0.4699 0.5233,0.7363 0.1497,0.2667 0.3413,0.6246 0.578,1.0697l4.9498 8.9162c0.3856,0.6777 0.598,1.1772 0.6379,1.5022 0.0412,0.3351 -0.0631,0.6605 -0.3096,0.976 -0.2464,0.3154 -0.5674,0.4991 -0.9635,0.5477 -0.2301,0.0283 -0.4348,0.0122 -0.611,-0.052 -0.1759,-0.0609 -0.3283,-0.1556 -0.4576,-0.284 -0.1291,-0.1285 -0.278,-0.3335 -0.4427,-0.6122 -0.1648,-0.2787 -0.3081,-0.5222 -0.4273,-0.7378zm-6.3274 -3.3185l4.3461 -0.5337 -2.9298 -5.7284 -1.4163 6.2621zm10.1513 4.2578m11.1546 -7.5431c0.2294,0.8563 0.2153,1.6863 -0.0434,2.4864 -0.2554,0.7992 -0.758,1.5059 -1.5046,2.119 -0.7466,0.613 -1.6992,1.0766 -2.8653,1.3891 -1.3966,0.3742 -2.6168,0.4187 -3.6671,0.1353 -0.7448,-0.21 -1.4035,-0.5736 -1.9758,-1.1017 -0.5713,-0.5248 -0.9374,-1.0869 -1.098,-1.6864 -0.0927,-0.3459 -0.0511,-0.6783 0.1232,-0.9898 0.1743,-0.3114 0.4471,-0.5187 0.8226,-0.6193 0.3031,-0.0812 0.5831,-0.0503 0.8452,0.0842 0.2595,0.1388 0.5142,0.3777 0.7639,0.7167 0.3021,0.4028 0.5971,0.7262 0.8892,0.9728 0.2877,0.2441 0.6513,0.415 1.0831,0.5111 0.4309,0.0929 0.9547,0.0584 1.574,-0.1075 0.8498,-0.2277 1.4853,-0.6098 1.9097,-1.1472 0.4244,-0.5373 0.5589,-1.1029 0.4,-1.6959 -0.1253,-0.4677 -0.3694,-0.8118 -0.7345,-1.0282 -0.3651,-0.2164 -0.7974,-0.3406 -1.2893,-0.3713 -0.496,-0.033 -1.1463,-0.0353 -1.9539,-0.006 -1.0781,0.0348 -2.0063,-0.0167 -2.7761,-0.1493 -0.7708,-0.136 -1.4308,-0.4251 -1.9801,-0.8675 -0.5492,-0.4424 -0.9329,-1.0705 -1.1518,-1.8874 -0.2083,-0.7774 -0.1828,-1.5256 0.0797,-2.2456 0.2635,-0.7166 0.755,-1.3461 1.4713,-1.8876 0.7163,-0.5414 1.6185,-0.9562 2.7055,-1.2474 0.8696,-0.233 1.6497,-0.3255 2.3396,-0.2809 0.6939,0.0471 1.2937,0.19 1.8082,0.437 0.5137,0.2436 0.9206,0.537 1.2199,0.8769 0.2962,0.3409 0.4973,0.6964 0.598,1.072 0.0909,0.3393 0.0511,0.6783 -0.1161,1.016 -0.1673,0.3379 -0.4332,0.5575 -0.7922,0.6537 -0.3294,0.0882 -0.5986,0.0721 -0.814,-0.0467 -0.2146,-0.1155 -0.4713,-0.3362 -0.7687,-0.6554 -0.4032,-0.464 -0.8217,-0.8002 -1.2643,-1.0029 -0.4394,-0.2035 -1.0589,-0.1964 -1.856,0.0172 -0.7412,0.1986 -1.2941,0.5197 -1.658,0.9667 -0.3672,0.4479 -0.4903,0.8975 -0.3677,1.3554 0.076,0.2833 0.217,0.5068 0.4266,0.6695 0.2104,0.166 0.4721,0.2865 0.782,0.3624 0.3089,0.0725 0.6142,0.1179 0.9128,0.1261 0.2989,0.0082 0.7861,0.0083 1.4684,-0.0015 0.8474,-0.0259 1.6235,-0.0149 2.33,0.0394 0.7089,0.0501 1.329,0.1769 1.87,0.3779 0.5402,0.1978 1.0021,0.5118 1.3873,0.9346 0.386,0.4261 0.676,0.9946 0.8667,1.7061zm2.0838 4.0647m6.0741 -15.5694l-6.2401 2.3954 1.2893 3.3587 5.7466 -2.2059c0.4235,-0.1625 0.7753,-0.188 1.0543,-0.0796 0.2803,0.1117 0.4807,0.3197 0.6004,0.6316 0.1198,0.312 0.1145,0.6027 -0.0135,0.8782 -0.1324,0.2737 -0.4129,0.4945 -0.8395,0.6583l-5.7466 2.2059 1.4935 3.8905 6.4533 -2.4772c0.4362,-0.1674 0.8032,-0.1914 1.0998,-0.0752 0.3011,0.1182 0.512,0.3441 0.6404,0.6784 0.1246,0.3247 0.1165,0.6274 -0.0281,0.9166 -0.1427,0.285 -0.4314,0.5127 -0.8676,0.6801l-7.5263 2.8891c-0.6016,0.2309 -1.0891,0.2647 -1.4561,0.0986 -0.3668,-0.1659 -0.6636,-0.5488 -0.8921,-1.1441l-3.9462 -10.2802c-0.1527,-0.398 -0.2169,-0.7459 -0.1957,-1.0426 0.0213,-0.2967 0.135,-0.5523 0.3425,-0.7634 0.2075,-0.2112 0.5072,-0.3919 0.8987,-0.5422l7.313 -2.8072c0.4425,-0.1698 0.8083,-0.1971 1.0961,-0.0847 0.2891,0.1154 0.4951,0.3286 0.6174,0.647 0.1246,0.3247 0.1153,0.6241 -0.0222,0.9035 -0.1387,0.276 -0.4288,0.5006 -0.8713,0.6704zm6.755 10.6587m6.9977 -3.5655l-3.9896 2.0328c-0.5742,0.2926 -1.0495,0.374 -1.4272,0.2411 -0.3778,-0.1329 -0.7128,-0.4826 -0.9993,-1.0447l-4.9991 -9.8113c-0.2926,-0.5743 -0.3786,-1.051 -0.2549,-1.4318 0.1237,-0.3806 0.4689,-0.7172 1.0311,-1.0036l4.2296 -2.1551c0.6228,-0.3174 1.1807,-0.5519 1.6783,-0.7098 0.4944,-0.1562 0.9805,-0.2163 1.4535,-0.1818 0.4044,0.0275 0.794,0.1236 1.178,0.2839 0.3795,0.1588 0.7182,0.3804 1.0163,0.6572 0.2995,0.2799 0.546,0.606 0.7395,0.9857 0.6657,1.3066 0.5001,2.5966 -0.4984,3.867 1.9939,-0.3309 3.3926,0.296 4.1976,1.876 0.3716,0.7293 0.5177,1.4816 0.4412,2.2553 -0.0749,0.7769 -0.3595,1.4654 -0.8521,2.0685 -0.3144,0.3669 -0.7099,0.7176 -1.1923,1.0477 -0.4809,0.3331 -1.0655,0.673 -1.7522,1.0229zm-3.1499 -5.6937l-2.7499 1.4011 1.9415 3.8103 2.8379 -1.446c1.7867,-0.9104 2.3518,-2.0098 1.6953,-3.2981 -0.3359,-0.6593 -0.8099,-1.0187 -1.4235,-1.0811 -0.6151,-0.0579 -1.3807,0.1446 -2.3013,0.6138zm-5.436 -3.8708l1.7201 3.3758 2.4216 -1.2339c0.6563,-0.3344 1.1343,-0.6583 1.4294,-0.9656 0.295,-0.3072 0.4477,-0.6835 0.4611,-1.1306 0.022,-0.3249 -0.0476,-0.6417 -0.2055,-0.9516 -0.3359,-0.6593 -0.7929,-0.9777 -1.3706,-0.955 -0.5809,0.0243 -1.3507,0.2787 -2.3109,0.7679l-2.1452 1.093zm13.8854 6.5825m8.4235 -7.222l-1.5669 -1.1882 -5.0494 3.1552 0.4028 1.964c0.1544,0.7681 0.2197,1.3103 0.1904,1.6302 -0.0265,0.3182 -0.2267,0.596 -0.5998,0.8292 -0.3152,0.1969 -0.668,0.2566 -1.0556,0.177 -0.3874,-0.0796 -0.6734,-0.2668 -0.8577,-0.5618 -0.1048,-0.1677 -0.1861,-0.3622 -0.2432,-0.5758 -0.056,-0.2183 -0.1206,-0.5278 -0.1912,-0.9302l-1.8617 -10.0518c-0.0549,-0.2873 -0.1185,-0.6337 -0.1936,-1.0371 -0.077,-0.4062 -0.112,-0.7584 -0.1011,-1.0627 0.0108,-0.3044 0.0933,-0.5972 0.2444,-0.8766 0.1511,-0.2793 0.3987,-0.5266 0.7429,-0.7417 0.3499,-0.2187 0.6836,-0.3346 1.0009,-0.348 0.3175,-0.0133 0.6149,0.0381 0.8896,0.1559 0.2719,0.1197 0.5343,0.2694 0.7855,0.4462 0.2483,0.1785 0.5733,0.4219 0.9759,0.7252l8.2542 5.989c0.6358,0.4512 1.0395,0.8141 1.213,1.0918 0.1789,0.2863 0.2219,0.6253 0.1318,1.0154 -0.09,0.39 -0.3033,0.6921 -0.6417,0.9036 -0.1966,0.1229 -0.3889,0.1948 -0.5758,0.2111 -0.1851,0.0191 -0.3633,-0.0022 -0.5346,-0.064 -0.1714,-0.0619 -0.393,-0.1848 -0.66,-0.3678 -0.2671,-0.1829 -0.5,-0.343 -0.6991,-0.4881zm-7.137 -0.3335l3.7133 -2.3204 -5.0762 -3.9535 1.3629 6.2739zm11.1776 -0.4244m-5.1935 -12.841l6.9937 8.0453 4.54 -3.9465c0.3603,-0.3132 0.7143,-0.4673 1.0618,-0.4575 0.3477,0.0049 0.6353,0.1434 0.8658,0.4086 0.2372,0.2728 0.332,0.5743 0.2892,0.9098 -0.0449,0.3328 -0.2516,0.6616 -0.6172,0.9793l-5.4073 4.7005c-0.4864,0.4229 -0.933,0.6213 -1.3345,0.5907 -0.4016,-0.0304 -0.8113,-0.2887 -1.2297,-0.77l-7.4009 -8.5138c-0.3916,-0.4504 -0.5839,-0.8796 -0.5775,-1.2828 0.0064,-0.4032 0.1757,-0.7492 0.5077,-1.0378 0.3345,-0.2909 0.7036,-0.4173 1.1066,-0.3747 0.4031,0.0428 0.8063,0.2933 1.2023,0.7489zm14.6875 5.0658m-6.2929 -12.3395l7.6683 7.4052 4.1787 -4.3272c0.3316,-0.3434 0.6709,-0.5278 1.0179,-0.5483 0.3469,-0.0254 0.6454,0.0875 0.8981,0.3315 0.2601,0.2511 0.3809,0.5432 0.3675,0.8812 -0.0158,0.3355 -0.1931,0.681 -0.5295,1.0294l-4.9771 5.1539c-0.4477,0.4636 -0.8753,0.7002 -1.2779,0.7048 -0.4027,0.0046 -0.8335,-0.217 -1.2922,-0.66l-8.1148 -7.8363c-0.4293,-0.4146 -0.6583,-0.8254 -0.687,-1.2276 -0.0288,-0.4023 0.1096,-0.7617 0.4152,-1.0782 0.308,-0.3188 0.6646,-0.477 1.0698,-0.4696 0.4053,0.0074 0.8288,0.2219 1.263,0.6412zm18.6549 -0.9602m-7.4711 -9.3441c-0.5022,-0.3648 -0.866,-0.8272 -1.0866,-1.388 -0.2254,-0.56 -0.2723,-1.18 -0.1463,-1.864 0.126,-0.684 0.4355,-1.3654 0.9326,-2.0496 0.4931,-0.6787 1.047,-1.1741 1.6616,-1.4863 0.6119,-0.3142 1.2143,-0.4413 1.8011,-0.3903 0.5867,0.0511 1.1025,0.2405 1.5439,0.5612 0.6042,0.4389 0.9841,1.0184 1.1403,1.7432 0.1584,0.722 0.1867,1.6404 0.0869,2.7524 0.5164,-0.0379 0.9947,-0.0697 1.4419,-0.099 0.4497,-0.0273 0.8741,-0.0603 1.2705,-0.1011 0.3992,-0.0388 0.7531,-0.0852 1.0525,-0.1374 -0.0936,-0.1903 -0.2828,-0.5216 -0.5772,-0.9926 -0.2895,-0.4717 -0.4732,-0.8455 -0.5498,-1.1288 -0.0739,-0.2812 -0.0126,-0.5571 0.1819,-0.8247 0.1844,-0.2538 0.4377,-0.4111 0.7574,-0.474 0.3217,-0.0655 0.6125,-0.0017 0.8718,0.1867 0.2373,0.1724 0.511,0.4977 0.8219,0.9806 0.3108,0.483 0.6193,1.0738 0.9137,1.7768 0.3174,-0.0772 0.808,-0.2012 1.4751,-0.3826 0.6651,-0.1785 1.0975,-0.2691 1.2958,-0.281 0.1992,-0.0071 0.4035,0.0656 0.6159,0.2199 0.2786,0.2025 0.4418,0.4769 0.4858,0.8166 0.0441,0.3397 -0.0238,0.6361 -0.2042,0.8844 -0.1844,0.2538 -0.4408,0.4384 -0.776,0.5575 -0.3352,0.119 -1.0964,0.3372 -2.2874,0.648 0.0737,0.5889 0.0815,1.1467 0.0185,1.6742 -0.0602,0.5296 -0.1962,1.0419 -0.4069,1.5464 -0.2086,0.5018 -0.503,1.0172 -0.8878,1.5469 -0.4891,0.6732 -1.0274,1.2052 -1.6121,1.5982 -0.5868,0.3956 -1.1743,0.6474 -1.7668,0.7607 -0.5951,0.1114 -1.1572,0.1076 -1.6871,-0.016 -0.5346,-0.1228 -1.0105,-0.338 -1.4299,-0.6427 -0.4028,-0.2926 -0.7291,-0.6266 -0.9715,-1.0009 -0.2424,-0.3742 -0.4136,-0.7767 -0.5163,-1.2097 -0.1,-0.4309 -0.1489,-0.909 -0.1459,-1.4295 0.0031,-0.5206 0.0544,-1.0902 0.1514,-1.711 -0.8023,0.0367 -1.4725,0.0134 -2.0221,-0.0655 -0.5449,-0.0797 -1.0273,-0.2743 -1.4466,-0.579zm5.5323 0.5251c-0.0816,0.7795 -0.0629,1.4211 0.0559,1.9248 0.1187,0.5037 0.3985,0.9135 0.8344,1.2302 0.2483,0.1804 0.5216,0.3031 0.8201,0.3681 0.2984,0.065 0.6143,0.0712 0.9457,0.0211 0.3362,-0.0508 0.6427,-0.1653 0.9293,-0.3449 0.2865,-0.1797 0.5333,-0.4092 0.7358,-0.6878 0.2004,-0.2759 0.3487,-0.5729 0.4516,-0.8944 0.1029,-0.3214 0.1571,-0.6571 0.1683,-1.0031 0.0083,-0.348 -0.0133,-0.7304 -0.0721,-1.1483 -0.7882,0.1565 -1.5415,0.271 -2.2513,0.337 -0.7117,0.0688 -1.5852,0.1339 -2.6177,0.1973zm-1.616 -2.4344c0.0485,-0.8036 0.0419,-1.4153 -0.0197,-1.8353 -0.0589,-0.418 -0.2604,-0.7498 -0.5997,-0.9964 -0.3338,-0.2425 -0.7034,-0.3256 -1.1081,-0.2443 -0.4046,0.0812 -0.7422,0.3079 -1.0129,0.6804 -0.2706,0.3724 -0.3791,0.7656 -0.3298,1.185 0.0494,0.4194 0.2295,0.7401 0.544,0.9685 0.16,0.1163 0.368,0.1957 0.6237,0.2382 0.253,0.0404 0.524,0.0561 0.8063,0.0505 0.2871,-0.0064 0.6531,-0.0229 1.0962,-0.0466zm15.4188 -5.7293m1.8582 -13.3368c0.79,0.4025 1.3973,0.9684 1.8188,1.6959 0.423,0.7247 0.6119,1.5711 0.568,2.5361 -0.044,0.965 -0.337,1.9832 -0.8851,3.0588 -0.6564,1.2883 -1.4398,2.2248 -2.3532,2.8158 -0.6544,0.4129 -1.3654,0.6591 -2.1407,0.7311 -0.7723,0.0734 -1.435,-0.0307 -1.9879,-0.3125 -0.3191,-0.1625 -0.5383,-0.4159 -0.6532,-0.7539 -0.1148,-0.3378 -0.0863,-0.6793 0.0902,-1.0256 0.1425,-0.2796 0.3528,-0.4671 0.6281,-0.5718 0.2768,-0.1 0.6248,-0.1294 1.0438,-0.0881 0.5015,0.0449 0.9392,0.0422 1.3178,-0.0099 0.374,-0.0505 0.7443,-0.2063 1.1047,-0.4629 0.3573,-0.2581 0.6822,-0.6704 0.9733,-1.2416 0.3994,-0.7839 0.5407,-1.5119 0.4253,-2.1869 -0.1153,-0.6749 -0.4457,-1.1533 -0.9926,-1.432 -0.4315,-0.2198 -0.8506,-0.2687 -1.2557,-0.1421 -0.405,0.1264 -0.7866,0.3646 -1.1385,0.7096 -0.3565,0.3465 -0.7933,0.8282 -1.3119,1.448 -0.6956,0.8245 -1.3549,1.4798 -1.9686,1.9632 -0.6168,0.4818 -1.2733,0.7788 -1.9696,0.891 -0.6963,0.1121 -1.4197,-0.023 -2.1733,-0.407 -0.7171,-0.3654 -1.2561,-0.8849 -1.6155,-1.5617 -0.3562,-0.6754 -0.4952,-1.4619 -0.4182,-2.3565 0.0769,-0.8946 0.3724,-1.8426 0.8832,-2.8453 0.4088,-0.8021 0.8621,-1.4438 1.3568,-1.9266 0.4993,-0.4842 1.0069,-0.8342 1.5347,-1.0514 0.5247,-0.2186 1.015,-0.3247 1.4679,-0.3198 0.4515,0.0081 0.8503,0.0965 1.1968,0.273 0.313,0.1595 0.5382,0.4159 0.6774,0.7661 0.1392,0.3504 0.1244,0.6949 -0.0444,1.0261 -0.1548,0.3039 -0.3468,0.4931 -0.5793,0.5737 -0.2294,0.0822 -0.5653,0.1253 -1.0015,0.1327 -0.6145,-0.0108 -1.1444,0.0752 -1.5912,0.2685 -0.4452,0.1903 -0.8545,0.6554 -1.2292,1.3908 -0.3483,0.6836 -0.4796,1.3094 -0.3909,1.879 0.0871,0.5725 0.3388,0.9649 0.7612,1.1801 0.2613,0.1331 0.5218,0.1779 0.7829,0.131 0.2642,-0.0453 0.5289,-0.1591 0.7927,-0.3386 0.2606,-0.1811 0.4985,-0.3776 0.7044,-0.5941 0.2061,-0.2165 0.5322,-0.5785 0.9814,-1.0922 0.5478,-0.647 1.0753,-1.2164 1.5884,-1.7051 0.5116,-0.4933 1.0208,-0.8692 1.5322,-1.1368 0.5084,-0.2691 1.0508,-0.4023 1.6228,-0.4056 0.5749,-0.0018 1.1914,0.1631 1.8477,0.4975zm4.2188 1.2647m-10.7988 -13.0357c0.5698,-1.4102 1.3423,-2.503 2.3235,-3.2836 0.9798,-0.7775 2.0983,-1.2156 3.3608,-1.3087 1.2624,-0.0932 2.6034,0.147 4.0263,0.7219 1.0497,0.4241 1.9439,0.951 2.689,1.583 0.7419,0.6308 1.3169,1.356 1.7162,2.1793 0.3992,0.8233 0.5976,1.7163 0.5992,2.6769 -0.0026,0.9626 -0.2184,1.9789 -0.6501,3.0475 -0.4293,1.0624 -0.9845,1.9452 -1.6689,2.647 -0.68,0.6999 -1.4475,1.2064 -2.2977,1.5176 -0.8503,0.3111 -1.774,0.4307 -2.7661,0.3647 -0.9921,-0.0662 -1.9981,-0.3071 -3.0163,-0.7185 -1.0433,-0.4215 -1.9413,-0.9572 -2.6895,-1.609 -0.7513,-0.6529 -1.3162,-1.385 -1.6965,-2.2007 -0.3835,-0.817 -0.5729,-1.6953 -0.5658,-2.6414 0.0039,-0.9474 0.2169,-1.9389 0.6359,-2.976zm8.5648 -1.0893c-0.9959,-0.4024 -1.9211,-0.5886 -2.7805,-0.5644 -0.8576,0.0287 -1.5961,0.2637 -2.2106,0.7105 -0.6133,0.4437 -1.0758,1.0513 -1.3888,1.826 -0.2222,0.5502 -0.3223,1.0982 -0.3058,1.6492 0.0208,0.5491 0.159,1.072 0.4175,1.57 0.2598,0.4948 0.6584,0.9648 1.1926,1.4086 0.5355,0.4408 1.1884,0.8186 1.9535,1.1277 0.7715,0.3117 1.5098,0.496 2.2107,0.5548 0.7021,0.0556 1.3317,-0.01 1.8859,-0.198 0.5541,-0.1881 1.0256,-0.472 1.4145,-0.8519 0.3907,-0.3754 0.6963,-0.8405 0.9186,-1.3906 0.2849,-0.7051 0.3684,-1.4217 0.2563,-2.1547 -0.112,-0.7331 -0.4668,-1.4208 -1.063,-2.0662 -0.5918,-0.6473 -1.4258,-1.1866 -2.5009,-1.621zm8.2086 -1.0162m-9.7135 -12.8647l-1.3149 5.6952 3.6518 0.8431 1.0992 -4.7615c0.1013,-0.4386 0.2777,-0.7479 0.5236,-0.9186 0.2492,-0.1699 0.537,-0.2191 0.8693,-0.1423 0.3323,0.0767 0.5695,0.247 0.7115,0.5107 0.1447,0.2679 0.1651,0.6191 0.0654,1.0511l-1.0993 4.7615 4.7017 1.0855c0.5949,0.1373 1.0086,0.3764 1.2356,0.7123 0.2269,0.3358 0.29,0.7144 0.1926,1.1364 -0.0982,0.4253 -0.3249,0.7404 -0.6795,0.9421 -0.3545,0.2016 -0.828,0.2358 -1.4161,0.1l-10.9817 -2.5353c-0.4154,-0.0959 -0.7397,-0.2373 -0.9738,-0.4208 -0.2341,-0.1835 -0.3824,-0.4207 -0.4414,-0.7109 -0.0591,-0.2901 -0.0413,-0.6395 0.053,-1.0482l1.5734 -6.815c0.1066,-0.4619 0.2887,-0.7804 0.5427,-0.9562 0.2574,-0.175 0.5493,-0.2267 0.8816,-0.15 0.3389,0.0783 0.582,0.2534 0.7367,0.5236 0.1512,0.2694 0.1752,0.6355 0.0686,1.0973zm12.6599 0.7927m-10.5332 -12.6999l-0.4504 3.2048 10.5361 1.4807c0.6046,0.085 1.0381,0.2837 1.2939,0.5951 0.2559,0.3114 0.3517,0.6831 0.2914,1.112 -0.0608,0.4322 -0.2591,0.7659 -0.5948,0.9977 -0.3356,0.2317 -0.8042,0.3071 -1.4019,0.2231l-10.5362 -1.4808 -0.4504 3.2048c-0.0707,0.5032 -0.2344,0.8589 -0.4881,1.0713 -0.2575,0.2152 -0.565,0.2959 -0.9298,0.2447 -0.3748,-0.0527 -0.6539,-0.2228 -0.8344,-0.5065 -0.1839,-0.2841 -0.2402,-0.6674 -0.1724,-1.1503l1.3123 -9.3374c0.0717,-0.5099 0.2358,-0.869 0.4972,-1.0872 0.2575,-0.2151 0.5688,-0.2988 0.9301,-0.2481 0.3647,0.0513 0.6372,0.2205 0.825,0.5016 0.1843,0.2808 0.2431,0.6713 0.1724,1.1745zm12.4771 0.014m0.2741 -7.8489l-0.1563 4.4749c-0.0225,0.6441 -0.1816,1.0992 -0.481,1.3651 -0.2994,0.266 -0.7677,0.3895 -1.3982,0.3675l-11.0048 -0.3843c-0.6441,-0.0225 -1.1027,-0.1784 -1.3758,-0.4712 -0.2729,-0.2927 -0.4,-0.7578 -0.378,-1.3883l0.1657 -4.7441c0.0244,-0.6986 0.0897,-1.3003 0.1929,-1.812 0.1031,-0.5082 0.2861,-0.9625 0.5456,-1.3595 0.2202,-0.3403 0.4931,-0.6345 0.8195,-0.8926 0.3228,-0.2549 0.6809,-0.4437 1.0674,-0.5702 0.3901,-0.1263 0.7947,-0.1838 1.2207,-0.1689 1.4655,0.0512 2.5135,0.8214 3.1406,2.3106 0.6772,-1.9043 1.9036,-2.8237 3.6758,-2.7618 0.818,0.0286 1.5468,0.2655 2.1864,0.7075 0.6432,0.4423 1.1073,1.0249 1.3961,1.7481 0.1684,0.4529 0.2834,0.9688 0.3383,1.5508 0.0581,0.5821 0.072,1.2582 0.0451,2.0284zm-6.507 -0.0054l-0.1077 3.0843 4.2738 0.1493 0.1112 -3.1832c0.0699,-2.004 -0.6176,-3.0312 -2.0626,-3.0817 -0.7396,-0.0258 -1.2837,0.2146 -1.6358,0.721 -0.3488,0.5098 -0.5428,1.2776 -0.5789,2.3103zm-6.0208 2.8778l3.7864 0.1322 0.0949 -2.7162c0.0257,-0.7362 -0.0259,-1.3112 -0.1516,-1.7182 -0.1256,-0.4071 -0.3808,-0.7231 -0.7652,-0.9515 -0.2736,-0.1768 -0.5844,-0.2695 -0.932,-0.2816 -0.7395,-0.0258 -1.2395,0.2195 -1.4998,0.7358 -0.2604,0.5198 -0.4111,1.3164 -0.4487,2.3934l-0.084 2.4061zm12.8879 -8.937m-2.422 -10.828l-1.7848 0.8256 0.4154 5.9397 1.9232 0.5663c0.7506,0.2244 1.26,0.4212 1.5287,0.5973 0.2685,0.1727 0.4198,0.48 0.4505,0.9188 0.026,0.3708 -0.087,0.7103 -0.3392,1.0152 -0.2521,0.3047 -0.5517,0.4693 -0.8987,0.4936 -0.1973,0.0138 -0.4072,-0.0057 -0.6226,-0.0556 -0.2191,-0.0531 -0.5227,-0.1413 -0.911,-0.2679l-9.7493 -3.0753c-0.2795,-0.0864 -0.6152,-0.1928 -1.0066,-0.3159 -0.3948,-0.1228 -0.7222,-0.2572 -0.9858,-0.4097 -0.2637,-0.1524 -0.4835,-0.3627 -0.6592,-0.6273 -0.1757,-0.2646 -0.2778,-0.5993 -0.3061,-1.0042 -0.0288,-0.4116 0.0255,-0.7606 0.1626,-1.0471 0.1373,-0.2866 0.3223,-0.525 0.5553,-0.7122 0.2333,-0.1839 0.4887,-0.3454 0.7627,-0.4841 0.2742,-0.1355 0.6416,-0.3081 1.0985,-0.5212l9.1631 -4.4764c0.6969,-0.3496 1.2068,-0.5356 1.5334,-0.5584 0.3368,-0.0236 0.6564,0.0976 0.9585,0.3603 0.3021,0.2625 0.4687,0.5927 0.4965,0.9907 0.0162,0.2314 -0.0106,0.4349 -0.0839,0.6076 -0.07,0.1724 -0.1725,0.3197 -0.3075,0.442 -0.1351,0.1222 -0.3476,0.2602 -0.6345,0.4101 -0.287,0.15 -0.5377,0.2804 -0.7592,0.3881zm-3.6451 6.145l-0.3055 -4.368 -5.8739 2.6259 6.1794 1.7421zm5.027 -10.049m-13.6818 -2.1619l10.4983 -1.8512 -1.0446 -5.9241c-0.0829,-0.4701 -0.0326,-0.853 0.1547,-1.1457 0.1834,-0.2956 0.4502,-0.4708 0.7961,-0.5318 0.3561,-0.0627 0.6634,0.0112 0.9289,0.2207 0.2621,0.21 0.4375,0.5565 0.5216,1.0334l1.2441 7.056c0.1119,0.6347 0.052,1.1197 -0.181,1.4481 -0.2329,0.3285 -0.6653,0.5468 -1.2934,0.6575l-11.1095 1.9589c-0.5877,0.1036 -1.0547,0.0475 -1.397,-0.1657 -0.3423,-0.2132 -0.5517,-0.5365 -0.6281,-0.9697 -0.077,-0.4366 0.0047,-0.818 0.2489,-1.1415 0.2442,-0.3236 0.6666,-0.5401 1.261,-0.6449zm11.5129 -9.9102m-13.8181 -0.9613l10.2969 -2.759 -1.5569 -5.8105c-0.1236,-0.4612 -0.1068,-0.847 0.0542,-1.1549 0.157,-0.3104 0.4075,-0.5082 0.7468,-0.5991 0.3492,-0.0936 0.6618,-0.0467 0.9446,0.1388 0.2794,0.1864 0.4843,0.5163 0.6096,0.9841l1.8544 6.9206c0.1668,0.6226 0.1494,1.1109 -0.0541,1.4584 -0.2033,0.3476 -0.6152,0.6027 -1.2311,0.7677l-10.8965 2.9197c-0.5765,0.1545 -1.0466,0.1393 -1.4062,-0.0433 -0.3596,-0.1825 -0.5964,-0.4863 -0.7102,-0.9112 -0.1148,-0.4282 -0.0666,-0.8154 0.1484,-1.1589 0.2151,-0.3436 0.617,-0.5961 1.2001,-0.7524zm9.1939 -16.0214m-9.9501 -10.9793c0.4237,-0.1887 0.9305,-0.2912 1.5201,-0.2999 0.5914,-0.0131 1.2245,0.1007 1.9022,0.3402 0.6764,0.2364 1.3224,0.6394 1.9291,1.2054 0.6112,0.5678 1.124,1.3175 1.5388,2.249 0.3135,0.7041 0.5338,1.375 0.6579,2.014 0.1226,0.6359 0.1483,1.2554 0.0742,1.8521 -0.0741,0.5966 -0.2506,1.1978 -0.5386,1.8002 -0.2608,0.5378 -0.5966,1.0495 -1.0059,1.5303 -0.4093,0.4809 -0.8837,0.916 -1.4171,1.3028 -0.5333,0.3869 -1.1348,0.7293 -1.7953,1.0234 -1.0779,0.4799 -2.1131,0.7541 -3.1037,0.8181 -0.9937,0.0655 -1.9192,-0.06 -2.7861,-0.3721 -0.8652,-0.3166 -1.63,-0.7936 -2.2973,-1.4372 -0.6642,-0.645 -1.1962,-1.4122 -1.5915,-2.3001 -0.4827,-1.0841 -0.6963,-2.1425 -0.6406,-3.1827 0.0572,-1.0371 0.3014,-1.9222 0.7359,-2.6569 0.4357,-0.7316 0.9357,-1.2267 1.5028,-1.4791 0.3084,-0.1374 0.6324,-0.1473 0.9663,-0.0346 0.3338,0.1127 0.5701,0.3247 0.7089,0.6363 0.1539,0.3458 0.1894,0.6435 0.1006,0.8884 -0.0843,0.2466 -0.2819,0.566 -0.5894,0.9567 -0.5054,0.6506 -0.8164,1.2855 -0.9343,1.9092 -0.1135,0.6253 -0.0164,1.2877 0.2942,1.9855 0.4966,1.1153 1.3142,1.8115 2.4525,2.096 1.1415,0.2832 2.491,0.0781 4.0487,-0.6155 1.0405,-0.4632 1.8413,-0.9953 2.3995,-1.5947 0.5626,-0.5976 0.8952,-1.2422 0.9962,-1.9292 0.101,-0.6871 -0.0064,-1.3895 -0.3268,-2.1092 -0.3467,-0.7788 -0.8326,-1.3502 -1.4588,-1.7171 -0.6263,-0.367 -1.3736,-0.5196 -2.2465,-0.4594 -0.4033,0.0414 -0.7537,0.0258 -1.0512,-0.0471 -0.2992,-0.0684 -0.5304,-0.294 -0.6982,-0.6709 -0.1442,-0.324 -0.1555,-0.6513 -0.0339,-0.9816 0.1217,-0.3305 0.3508,-0.5705 0.6873,-0.7203zm3.6106 -2.7296m-13.6402 2.4102l9.3236 -5.1682 -2.9164 -5.2612c-0.2314,-0.4176 -0.3085,-0.7959 -0.2267,-1.1337 0.0771,-0.3392 0.2724,-0.5917 0.5796,-0.762 0.3162,-0.1753 0.6309,-0.2054 0.9501,-0.0938 0.3162,0.1132 0.5948,0.3838 0.8296,0.8074l3.4736 6.2664c0.3124,0.5637 0.4137,1.0418 0.3003,1.4282 -0.1132,0.3864 -0.4511,0.7336 -1.0088,1.0427l-9.8665 5.4691c-0.522,0.2893 -0.9818,0.3883 -1.3749,0.2981 -0.3931,-0.0901 -0.6963,-0.3276 -0.9096,-0.7123 -0.2149,-0.3877 -0.2619,-0.775 -0.1363,-1.1604 0.1256,-0.3854 0.4545,-0.7277 0.9824,-1.0203zm8.201 -12.4362m-5.8875 2.1451l-5.7712 4.041c-0.4889,0.3423 -0.9358,0.4888 -1.3362,0.4402 -0.4004,-0.0486 -0.7267,-0.253 -0.9791,-0.6133 -0.2621,-0.3744 -0.3484,-0.7594 -0.2571,-1.1522 0.0913,-0.3928 0.3817,-0.7627 0.8706,-1.105l5.9026 -4.133c0.6704,-0.4694 1.1791,-0.9381 1.5232,-1.4038 0.3461,-0.463 0.5094,-0.9728 0.4901,-1.5297 -0.0193,-0.5567 -0.2701,-1.1764 -0.7512,-1.8636 -0.665,-0.9497 -1.3859,-1.4441 -2.1674,-1.4839 -0.7813,-0.0399 -1.6837,0.3005 -2.7089,1.0183l-5.95 4.1663c-0.4945,0.3462 -0.9423,0.4974 -1.3379,0.4497 -0.3955,-0.0477 -0.7211,-0.2569 -0.9773,-0.6228 -0.2543,-0.3632 -0.3415,-0.7435 -0.257,-1.1398 0.0847,-0.3965 0.376,-0.7711 0.8705,-1.1174l5.7712 -4.041c0.9386,-0.6572 1.7853,-1.1128 2.5383,-1.3693 0.7576,-0.2558 1.5485,-0.2975 2.3794,-0.1216 0.7101,0.1521 1.3595,0.4551 1.9487,0.9043 0.592,0.4472 1.1576,1.0587 1.6994,1.8325 0.6455,0.9219 1.1005,1.7856 1.3696,2.5921 0.2671,0.8037 0.3365,1.5628 0.2157,2.276 -0.1228,0.7105 -0.444,1.3933 -0.9561,2.0474 -0.5139,0.6512 -1.2248,1.2948 -2.1299,1.9286zm-2.9142 -14.831m-5.3562 -5.7438l3.0537 3.2747c0.4396,0.4713 0.6488,0.9057 0.6252,1.3054 -0.0236,0.3998 -0.2674,0.8183 -0.7288,1.2486l-8.0533 7.5098c-0.4714,0.4395 -0.9059,0.6536 -1.306,0.6396 -0.4,-0.0139 -0.8187,-0.253 -1.249,-0.7144l-3.2375 -3.4717c-0.4767,-0.5113 -0.8559,-0.9829 -1.1448,-1.4177 -0.2865,-0.4322 -0.4783,-0.8829 -0.5755,-1.3471 -0.085,-0.3963 -0.1,-0.7973 -0.0518,-1.2106 0.0481,-0.4085 0.1678,-0.7953 0.3517,-1.158 0.1865,-0.3651 0.4319,-0.6919 0.7436,-0.9826 1.0725,-1.0001 2.3582,-1.1964 3.8546,-0.5869 -0.8676,-1.8254 -0.6506,-3.3427 0.6463,-4.5521 0.5986,-0.5582 1.2815,-0.9059 2.0464,-1.0457 0.7675,-0.1421 1.5077,-0.0583 2.2232,0.2489 0.4393,0.2012 0.8855,0.4846 1.3358,0.8574 0.4527,0.3705 0.9406,0.8387 1.4662,1.4024zm-4.605 4.5973l2.1048 2.2571 3.1276 -2.9165 -2.1722 -2.3294c-1.3676,-1.4666 -2.5801,-1.7067 -3.6376,-0.7206 -0.5412,0.5047 -0.756,1.0594 -0.6469,1.6664 0.1139,0.6072 0.5196,1.2873 1.2243,2.043zm-2.2224 6.2923l2.7709 -2.5839 -1.8536 -1.9878c-0.5024,-0.5387 -0.9454,-0.9088 -1.3221,-1.1078 -0.3767,-0.199 -0.7805,-0.242 -1.2139,-0.1317 -0.3185,0.0685 -0.6038,0.2227 -0.8581,0.4599 -0.5412,0.5047 -0.7213,1.0316 -0.5403,1.5808 0.1835,0.5517 0.6402,1.2215 1.3752,2.0097l1.6419 1.7608z"/>
 </g>
</svg>
